<?xml version="1.0" standalone="no"?><!DOCTYPE svg PUBLIC "-//W3C//DTD SVG 1.1//EN" "http://www.w3.org/Graphics/SVG/1.1/DTD/svg11.dtd"><svg t="1684912535086" class="icon" viewBox="0 0 1024 1024" version="1.1" xmlns="http://www.w3.org/2000/svg" p-id="6719" xmlns:xlink="http://www.w3.org/1999/xlink" width="200" height="200"><path d="M158.373602 394.842653c0 7.823718-6.321338 14.145056-14.145056 14.145056-7.795371 0-14.145056-6.321338-14.145056-14.145056V196.301628c0-18.226996 7.45521-34.78153 19.445909-46.772229s28.545233-19.445909 46.772229-19.445909h631.425091c18.198649 0 34.753183 7.45521 46.743882 19.445909 12.019046 11.990699 19.445909 28.545233 19.445909 46.772229v198.541025c0 7.823718-6.321338 14.145056-14.145056 14.145056-7.795371 0-14.145056-6.321338-14.145056-14.145056V196.301628c0-10.403278-4.252021-19.899457-11.140295-26.759385-6.888274-6.888274-16.356107-11.168641-26.759384-11.168641H196.301628c-10.403278 0-19.899457 4.280368-26.759385 11.168641-6.888274 6.859927-11.168641 16.356107-11.168641 26.759385v198.541025z m707.252796 234.343041c0-7.823718 6.349684-14.145056 14.145056-14.145056 7.823718 0 14.145056 6.321338 14.145056 14.145056v198.541025c0 18.198649-7.426863 34.78153-19.445909 46.772229-11.990699 11.990699-28.545233 19.417562-46.743882 19.417562H196.301628c-18.226996 0-34.78153-7.426863-46.772229-19.417562s-19.445909-28.57358-19.445909-46.772229v-198.541025c0-7.823718 6.349684-14.145056 14.145056-14.145056 7.823718 0 14.145056 6.321338 14.145056 14.145056v198.541025c0 10.403278 4.280368 19.871111 11.168641 26.759384 6.859927 6.888274 16.356107 11.168641 26.759385 11.168642h631.425091c10.403278 0 19.871111-4.280368 26.759384-11.168642s11.140295-16.356107 11.140295-26.759384v-198.541025zM37.928026 526.145056c-7.823718 0-14.145056-6.321338-14.145056-14.145056 0-7.795371 6.321338-14.145056 14.145056-14.145056h948.172295c7.795371 0 14.145056 6.349684 14.145056 14.145056 0 7.823718-6.349684 14.145056-14.145056 14.145056H37.928026z" fill="#1296db" p-id="6720"></path></svg>