<?xml version="1.0" standalone="no"?><!DOCTYPE svg PUBLIC "-//W3C//DTD SVG 1.1//EN" "http://www.w3.org/Graphics/SVG/1.1/DTD/svg11.dtd"><svg t="1684912811434" class="icon" viewBox="0 0 1024 1024" version="1.1" xmlns="http://www.w3.org/2000/svg" p-id="15010" xmlns:xlink="http://www.w3.org/1999/xlink" width="200" height="200"><path d="M508.8 754.7m-84.2 0a84.2 84.2 0 1 0 168.4 0 84.2 84.2 0 1 0-168.4 0Z" fill="#2c2c2c" p-id="15011"></path><path d="M508.8 852.9c-25.8 0-50.2-10-68.7-28-18.5-18.1-29-42.3-29.5-68.2-0.5-26.2 9.2-51.1 27.4-70s42.6-29.6 68.9-30.1h2c25.8 0 50.2 10 68.7 28 18.5 18.1 29 42.3 29.5 68.2 0.5 26.2-9.2 51.1-27.4 70s-42.6 29.6-68.9 30.1h-2z m0.1-168.4h-1.4c-18.7 0.4-36.2 8-49.2 21.5s-19.9 31.3-19.6 50c0.8 38.4 33 69.6 71.6 68.8 18.8-0.4 36.2-8 49.2-21.5s19.9-31.3 19.6-50c-0.8-38-32.3-68.8-70.2-68.8z" fill="#2c2c2c" p-id="15012"></path><path d="M507.1 221.7m-84.2 0a84.2 84.2 0 1 0 168.4 0 84.2 84.2 0 1 0-168.4 0Z" fill="#2c2c2c" p-id="15013"></path><path d="M507.1 319.9c-25.8 0-50.2-10-68.7-28-18.5-18.1-29-42.3-29.5-68.2-0.5-26.2 9.2-51.1 27.4-70s42.6-29.6 68.9-30.1c26.6-0.5 51.7 9.5 70.7 28 18.5 18.1 29 42.3 29.5 68.2 0.5 26.2-9.2 51.1-27.4 70s-42.6 29.6-68.9 30.1h-2z m0-168.4h-1.4c-18.8 0.4-36.2 8-49.2 21.5s-19.9 31.3-19.6 50c0.8 37.9 32.2 68.8 70.2 68.8h1.4c18.7-0.4 36.2-8 49.2-21.5s19.9-31.3 19.6-50c-0.8-38-32.2-68.8-70.2-68.8z" fill="#2c2c2c" p-id="15014"></path><path d="M214 754.7m-84.2 0a84.2 84.2 0 1 0 168.4 0 84.2 84.2 0 1 0-168.4 0Z" fill="#2c2c2c" p-id="15015"></path><path d="M214 852.9c-25.8 0-50.2-10-68.7-28-18.5-18.1-29-42.3-29.5-68.2-1.1-54.1 42.1-99.1 96.2-100.1h2c25.8 0 50.2 10 68.7 28 18.5 18.1 29 42.3 29.5 68.2 0.5 26.2-9.2 51.1-27.4 70s-42.6 29.6-68.9 30.1H214z m0.1-168.4h-1.4c-38.7 0.8-69.6 32.9-68.8 71.6 0.8 38.4 33 69.6 71.6 68.8 18.8-0.4 36.2-8 49.2-21.5s19.9-31.3 19.6-50c-0.8-38.1-32.3-68.9-70.2-68.9z" fill="#2c2c2c" p-id="15016"></path><path d="M803.7 754.7m-84.2 0a84.2 84.2 0 1 0 168.4 0 84.2 84.2 0 1 0-168.4 0Z" fill="#2c2c2c" p-id="15017"></path><path d="M803.6 852.9c-25.8 0-50.2-10-68.7-28-18.5-18.1-29-42.3-29.5-68.2-1.1-54.1 42.1-99.1 96.2-100.1h2c25.8 0 50.2 10 68.7 28 18.5 18.1 29 42.3 29.5 68.2 0.5 26.2-9.2 51.1-27.4 70s-42.6 29.6-68.9 30.1h-1.9z m0.1-168.4h-1.4c-38.7 0.8-69.6 32.9-68.8 71.6 0.8 38.4 33 69.6 71.6 68.8 18.8-0.4 36.2-8 49.2-21.5s19.9-31.3 19.6-50c-0.8-38.1-32.3-68.9-70.2-68.9z" fill="#2c2c2c" p-id="15018"></path><path d="M801.4 477.6h-589c-5.8 0-10.5-4.7-10.5-10.5s4.7-10.5 10.5-10.5h588.9c5.8 0 10.5 4.7 10.5 10.5 0.1 5.8-4.6 10.5-10.4 10.5z" fill="#2c2c2c" p-id="15019"></path><path d="M517.6 309.3v351.5c0 5.8-4.7 10.5-10.5 10.5s-10.5-4.7-10.5-10.5V309.3c0-5.8 4.7-10.5 10.5-10.5s10.5 4.7 10.5 10.5z" fill="#2c2c2c" p-id="15020"></path><path d="M223 467.4v193.4c0 5.8-4.7 10.5-10.5 10.5s-10.5-4.7-10.5-10.5V467.4c0-5.8 4.7-10.5 10.5-10.5s10.5 4.7 10.5 10.5z" fill="#2c2c2c" p-id="15021"></path><path d="M812.2 467.2v193.4c0 5.8-4.7 10.5-10.5 10.5s-10.5-4.7-10.5-10.5V467.2c0-5.8 4.7-10.5 10.5-10.5s10.5 4.7 10.5 10.5z" fill="#2c2c2c" p-id="15022"></path></svg>